<svg xmlns="http://www.w3.org/2000/svg" width="30.164" height="30.122" viewBox="0 0 30.164 30.122"><g transform="translate(-6.44 -6.4)"><g transform="translate(6.44 6.4)"><path d="M33.075,14.287a1.036,1.036,0,0,0-1.038-.882H26.07V10.966a4.566,4.566,0,1,0-9.133,0v2.439H10.97a1.036,1.036,0,0,0-1.038.882L6.456,35.3a1.02,1.02,0,0,0,.234.856,1.064,1.064,0,0,0,.8.363H35.54A1.052,1.052,0,0,0,36.6,35.458a1.315,1.315,0,0,0-.052-.337L33.075,14.287Zm-14.01-3.321a2.439,2.439,0,0,1,4.878,0v2.439H19.065V10.966ZM8.739,34.42l3.139-18.888h5.059v5.941a1.064,1.064,0,1,0,2.127,0V15.533h4.878v5.941a1.064,1.064,0,1,0,2.127,0V15.533h5.059L34.268,34.42H8.739Z" transform="translate(-6.44 -6.4)" fill="#323742"/></g></g></svg>