<svg xmlns="http://www.w3.org/2000/svg" width="30.015" height="30.021" viewBox="0 0 30.015 30.021"><g transform="translate(-0.449 0)"><path d="M30.388,8.826a10.97,10.97,0,0,0-.7-3.642A7.69,7.69,0,0,0,25.3.792a11,11,0,0,0-3.642-.7C20.048.018,19.538,0,15.462,0S10.876.018,9.275.088a10.973,10.973,0,0,0-3.642.7A7.325,7.325,0,0,0,2.97,2.522,7.391,7.391,0,0,0,1.24,5.179a11,11,0,0,0-.7,3.642C.466,10.427.449,10.938.449,15.014S.466,19.6.537,21.2a10.969,10.969,0,0,0,.7,3.642,7.689,7.689,0,0,0,4.393,4.393,11,11,0,0,0,3.642.7c1.6.071,2.111.088,6.187.088s4.586-.017,6.187-.088a10.967,10.967,0,0,0,3.642-.7,7.679,7.679,0,0,0,4.393-4.393,11.007,11.007,0,0,0,.7-3.642c.07-1.6.088-2.111.088-6.187s-.006-4.586-.076-6.187Zm-2.7,12.257a8.229,8.229,0,0,1-.516,2.786,4.98,4.98,0,0,1-2.85,2.85,8.258,8.258,0,0,1-2.786.516c-1.583.071-2.058.088-6.064.088s-4.486-.017-6.064-.088a8.224,8.224,0,0,1-2.786-.516A4.62,4.62,0,0,1,4.894,25.6a4.667,4.667,0,0,1-1.12-1.724,8.259,8.259,0,0,1-.516-2.786c-.071-1.583-.088-2.059-.088-6.064s.017-4.486.088-6.064a8.224,8.224,0,0,1,.516-2.786A4.563,4.563,0,0,1,4.9,4.451a4.66,4.66,0,0,1,1.724-1.12A8.263,8.263,0,0,1,9.41,2.815c1.583-.07,2.059-.088,6.064-.088s4.486.018,6.064.088a8.229,8.229,0,0,1,2.786.516,4.616,4.616,0,0,1,1.724,1.12,4.666,4.666,0,0,1,1.12,1.724,8.262,8.262,0,0,1,.516,2.786c.07,1.583.088,2.058.088,6.064s-.018,4.475-.088,6.058Zm0,0" transform="translate(0 0)" fill="#323742"/><path d="M132.661,124.5a7.712,7.712,0,1,0,7.712,7.712A7.714,7.714,0,0,0,132.661,124.5Zm0,12.715a5,5,0,1,1,5-5A5,5,0,0,1,132.661,137.215Zm0,0" transform="translate(-117.199 -117.198)" fill="#323742"/><path d="M366.051,90.4a1.8,1.8,0,1,1-1.8-1.8A1.8,1.8,0,0,1,366.051,90.4Zm0,0" transform="translate(-340.771 -83.406)" fill="#323742"/></g></svg>