<svg xmlns="http://www.w3.org/2000/svg" width="31.408" height="30.021" viewBox="0 0 31.408 30.021"><g transform="translate(0 0.668)"><path d="M3.809-.668a3.509,3.509,0,1,0-.088,7h.044a3.511,3.511,0,1,0,.045-7Zm0,0" fill="#323742"/><path d="M8.109,198.313h6.733v20.256H8.109Zm0,0" transform="translate(-7.711 -189.216)" fill="#323742"/><path d="M234.016,188.625c-3.632,0-6.068,3.413-6.068,3.413V189.1h-6.733v20.256h6.733V198.045a4.614,4.614,0,0,1,.222-1.643,3.686,3.686,0,0,1,3.454-2.462c2.436,0,3.411,1.858,3.411,4.581v10.836h6.732V197.742c0-6.222-3.322-9.117-7.751-9.117Zm0,0" transform="translate(-210.359 -180.003)" fill="#323742"/></g></svg>