<svg xmlns="http://www.w3.org/2000/svg" width="30.094" height="30.021" viewBox="0 0 30.094 30.021"><path d="M29.029,17.766c-.01.053-.026-.048,0,0a14.3,14.3,0,0,0,.237-2.576A14.2,14.2,0,0,0,15.056.98a14.294,14.294,0,0,0-2.691.254h-.007a8.408,8.408,0,0,0-11.3,11.505A14.33,14.33,0,0,0,.845,15.19,14.2,14.2,0,0,0,15.056,29.4a14.287,14.287,0,0,0,2.489-.221A8.408,8.408,0,0,0,29.029,17.766ZM15.112,23.893c-5.048,0-7.307-2.482-7.307-4.342A1.588,1.588,0,0,1,9.48,17.928c2.161,0,1.6,3.1,5.632,3.1,2.064,0,3.2-1.12,3.2-2.267,0-.69-.34-1.454-1.7-1.789l-4.49-1.121c-3.616-.907-4.273-2.862-4.273-4.7,0-3.816,3.593-5.248,6.966-5.248,3.108,0,6.771,1.718,6.771,4.007a1.642,1.642,0,0,1-1.82,1.551c-1.844,0-1.5-2.552-5.219-2.552-1.843,0-2.864.835-2.864,2.029s1.456,1.573,2.719,1.861l3.324.738c3.641.811,4.564,2.937,4.564,4.939,0,3.1-2.38,5.416-7.183,5.416Zm0,0" transform="translate(0 -0.249)" fill="#323742"/></svg>