<svg xmlns="http://www.w3.org/2000/svg" width="36.914" height="30" viewBox="0 0 36.914 30"><path d="M11.691,26.176c13.93,0,21.548-11.541,21.548-21.548q0-.492-.021-.979A15.412,15.412,0,0,0,37-.273,15.11,15.11,0,0,1,32.646.919a7.6,7.6,0,0,0,3.33-4.189,15.189,15.189,0,0,1-4.809,1.838A7.58,7.58,0,0,0,18.261,5.475,21.5,21.5,0,0,1,2.65-2.438,7.58,7.58,0,0,0,5,7.673a7.514,7.514,0,0,1-3.43-.947c0,.032,0,.063,0,.1A7.576,7.576,0,0,0,7.64,14.247a7.6,7.6,0,0,1-2,.266,7.527,7.527,0,0,1-1.424-.137,7.582,7.582,0,0,0,7.075,5.26,15.194,15.194,0,0,1-9.406,3.242,15.413,15.413,0,0,1-1.807-.1,21.438,21.438,0,0,0,11.609,3.4" transform="translate(-0.082 3.824)" fill="#323742"/></svg>