<svg xmlns="http://www.w3.org/2000/svg" width="42.878" height="30.021" viewBox="0 0 42.878 30.021"><path d="M41.995-1.384a5.372,5.372,0,0,0-3.779-3.78c-3.355-.918-16.777-.918-16.777-.918s-13.421,0-16.776.883A5.481,5.481,0,0,0,.884-1.384C0,1.971,0,8.929,0,8.929s0,6.993.883,10.313a5.372,5.372,0,0,0,3.779,3.779c3.39.918,16.777.918,16.777.918s13.421,0,16.776-.883A5.372,5.372,0,0,0,42,19.277c.883-3.355.883-10.313.883-10.313s.035-6.993-.883-10.348ZM17.166,15.357V2.5L28.326,8.929Zm0,0" transform="translate(-0.001 6.082)" fill="#323742"/></svg>